<svg xmlns="http://www.w3.org/2000/svg" version="1.1" xmlns:xlink="http://www.w3.org/1999/xlink" xmlns:svgjs="http://svgjs.com/svgjs" width="1440" height="560" preserveAspectRatio="none" viewBox="0 0 1440 560"><g mask="url(&quot;#SvgjsMask1052&quot;)" fill="none"><rect width="1440" height="560" x="0" y="0" fill="#0e2a47"></rect><path d="M329.4746561861615 436.2702851988446L205.41390143500254 460.38525305923355 229.5288692953915 584.4460078103925 353.58962404655045 560.3310399500035z" fill="rgba(28, 83, 142, 0.4)" class="triangle-float2"></path><path d="M-41.104,190.058C-25.751,189.999,-10.969,183.655,-2.742,170.693C6.117,156.735,8.238,139.135,0.486,124.533C-7.74,109.038,-23.563,98.171,-41.104,98.43C-58.262,98.683,-72.518,110.604,-80.622,125.73C-88.259,139.985,-88.445,157.21,-79.98,170.99C-71.883,184.171,-56.574,190.117,-41.104,190.058" fill="rgba(28, 83, 142, 0.4)" class="triangle-float2"></path><path d="M1439.645653980509 425.2441009433901L1485.705680816089 264.6136980732882 1325.0752779459872 218.55367123770816 1279.015251110407 379.18407410781003z" fill="rgba(28, 83, 142, 0.4)" class="triangle-float2"></path><path d="M406.6424765654459 75.0138115065225L393.90545455713067-70.57101622994253 248.3206268206656-57.83399422162725 261.05764882898086 87.75083351483777z" fill="rgba(28, 83, 142, 0.4)" class="triangle-float3"></path><path d="M126.49359181070203-7.230282684289557L101.03173936998257 137.1710581565515 245.43308021082365 162.63291059727098 270.8949326515431 18.2315697564299z" fill="rgba(28, 83, 142, 0.4)" class="triangle-float1"></path><path d="M136.2444095517771 245.96644674506155L101.42041068516642 328.00664686241004 183.46061080251488 362.8306457290207 218.2846096691256 280.7904456116722z" fill="rgba(28, 83, 142, 0.4)" class="triangle-float1"></path><path d="M346.7452848727245 631.3533826890341L507.22603640993884 642.5752900223301 518.4479437432349 482.0945384851158 357.96719220602046 470.87263115181975z" fill="rgba(28, 83, 142, 0.4)" class="triangle-float3"></path><path d="M530.963,487.125C575.506,488.157,617.095,463.955,639.28,425.316C661.376,386.833,661.847,338.389,637.763,301.118C615.408,266.523,572.145,256.923,530.963,257.692C491.415,258.43,451.552,271.274,430.855,304.982C409.261,340.15,411.123,384.327,431,420.493C451.673,458.106,488.055,486.131,530.963,487.125" fill="rgba(28, 83, 142, 0.4)" class="triangle-float2"></path><path d="M54.016,561.403C73.122,562.739,95.765,563.014,105.524,546.534C115.376,529.897,104.056,510.231,94.153,493.624C84.591,477.589,72.679,460.658,54.016,460.157C34.736,459.64,18.662,474.149,9.968,491.365C2.095,506.954,4.342,525.325,13.64,540.108C22.323,553.914,37.747,560.265,54.016,561.403" fill="rgba(28, 83, 142, 0.4)" class="triangle-float1"></path><path d="M312.239,407.764C342.194,408.03,373.524,401.038,389.789,375.882C407.333,348.747,407.492,313.425,391.32,285.45C375.163,257.502,344.502,240.627,312.239,241.736C281.705,242.785,257.099,263.996,242.044,290.581C227.24,316.723,221.602,348.751,237.04,374.524C252.135,399.723,282.866,407.503,312.239,407.764" fill="rgba(28, 83, 142, 0.4)" class="triangle-float2"></path><path d="M774.7626412325898 521.4516884387936L840.4194690971487 453.46205287771335 772.4298335360686 387.8052250131543 706.7730056715096 455.7948605742345z" fill="rgba(28, 83, 142, 0.4)" class="triangle-float1"></path><path d="M567.9965205455017 64.21218366166013L565.6465751308389 198.84046630206865 700.2748577712474 201.1904117167314 702.6248031859102 66.56212907632289z" fill="rgba(28, 83, 142, 0.4)" class="triangle-float1"></path></g><defs><mask id="SvgjsMask1052"><rect width="1440" height="560" fill="#ffffff"></rect></mask><style>
            @keyframes float1 {
                0%{transform: translate(0, 0)}
                50%{transform: translate(-10px, 0)}
                100%{transform: translate(0, 0)}
            }

            .triangle-float1 {
                animation: float1 5s infinite;
            }

            @keyframes float2 {
                0%{transform: translate(0, 0)}
                50%{transform: translate(-5px, -5px)}
                100%{transform: translate(0, 0)}
            }

            .triangle-float2 {
                animation: float2 4s infinite;
            }

            @keyframes float3 {
                0%{transform: translate(0, 0)}
                50%{transform: translate(0, -10px)}
                100%{transform: translate(0, 0)}
            }

            .triangle-float3 {
                animation: float3 6s infinite;
            }
        </style></defs></svg>