<svg xmlns="http://www.w3.org/2000/svg" xmlns:xlink="http://www.w3.org/1999/xlink" width="500" height="500" preserveAspectRatio="xMidYMid meet" version="1.0" viewBox="0 0 375 375" zoomAndPan="magnify"><g fill="#fff" fill-opacity="1"><g><g><path d="M 20.671875 -0.28125 L 20.921875 -0.28125 L 20.921875 0 L 11.984375 0 L 11.984375 -0.28125 L 12.234375 -0.28125 C 12.648438 -0.28125 12.953125 -0.40625 13.140625 -0.65625 C 13.335938 -0.90625 13.4375 -1.140625 13.4375 -1.359375 C 13.4375 -1.585938 13.390625 -1.816406 13.296875 -2.046875 L 11.9375 -5.484375 L 5.375 -5.484375 L 3.921875 -2.046875 C 3.828125 -1.804688 3.78125 -1.578125 3.78125 -1.359375 C 3.78125 -1.140625 3.882812 -0.90625 4.09375 -0.65625 C 4.300781 -0.40625 4.609375 -0.28125 5.015625 -0.28125 L 5.234375 -0.28125 L 5.234375 0 L -0.75 0 L -0.75 -0.28125 L -0.5 -0.28125 C -0.0703125 -0.28125 0.351562 -0.410156 0.78125 -0.671875 C 1.21875 -0.929688 1.570312 -1.320312 1.84375 -1.84375 L 8.3125 -16.484375 C 9.195312 -18.335938 9.664062 -19.5625 9.71875 -20.15625 L 9.96875 -20.15625 L 18.28125 -1.90625 C 18.5625 -1.363281 18.914062 -0.957031 19.34375 -0.6875 C 19.78125 -0.414062 20.222656 -0.28125 20.671875 -0.28125 Z M 5.859375 -6.65625 L 11.453125 -6.65625 L 8.734375 -13.546875 Z M 5.859375 -6.65625" transform="translate(97.269919, 195.374987)"/></g></g></g><g fill="#fff" fill-opacity="1"><g><g><path d="M 11.34375 -19.59375 C 14.644531 -19.59375 17.253906 -18.71875 19.171875 -16.96875 C 21.097656 -15.21875 22.0625 -12.828125 22.0625 -9.796875 C 22.0625 -6.773438 21.097656 -4.382812 19.171875 -2.625 C 17.253906 -0.875 14.644531 0 11.34375 0 L 1.171875 0 L 1.171875 -0.28125 L 1.546875 -0.28125 C 2.023438 -0.28125 2.4375 -0.453125 2.78125 -0.796875 C 3.125 -1.140625 3.304688 -1.554688 3.328125 -2.046875 L 3.328125 -17.71875 C 3.328125 -18.164062 3.144531 -18.539062 2.78125 -18.84375 C 2.414062 -19.15625 2.003906 -19.3125 1.546875 -19.3125 L 1.171875 -19.3125 L 1.171875 -19.59375 Z M 10.96875 -1.203125 C 12.3125 -1.203125 13.472656 -1.546875 14.453125 -2.234375 C 15.441406 -2.929688 16.195312 -3.925781 16.71875 -5.21875 C 17.238281 -6.519531 17.5 -7.9375 17.5 -9.46875 C 17.5 -11 17.34375 -12.300781 17.03125 -13.375 C 16.726562 -14.445312 16.296875 -15.351562 15.734375 -16.09375 C 14.578125 -17.644531 12.988281 -18.421875 10.96875 -18.421875 L 7.53125 -18.421875 L 7.53125 -1.203125 Z M 10.96875 -1.203125" transform="translate(128.515184, 195.374987)"/></g></g></g><g fill="#fff" fill-opacity="1"><g><g><path d="M 20.671875 -0.28125 L 20.921875 -0.28125 L 20.921875 0 L 11.984375 0 L 11.984375 -0.28125 L 12.234375 -0.28125 C 12.648438 -0.28125 12.953125 -0.40625 13.140625 -0.65625 C 13.335938 -0.90625 13.4375 -1.140625 13.4375 -1.359375 C 13.4375 -1.585938 13.390625 -1.816406 13.296875 -2.046875 L 11.9375 -5.484375 L 5.375 -5.484375 L 3.921875 -2.046875 C 3.828125 -1.804688 3.78125 -1.578125 3.78125 -1.359375 C 3.78125 -1.140625 3.882812 -0.90625 4.09375 -0.65625 C 4.300781 -0.40625 4.609375 -0.28125 5.015625 -0.28125 L 5.234375 -0.28125 L 5.234375 0 L -0.75 0 L -0.75 -0.28125 L -0.5 -0.28125 C -0.0703125 -0.28125 0.351562 -0.410156 0.78125 -0.671875 C 1.21875 -0.929688 1.570312 -1.320312 1.84375 -1.84375 L 8.3125 -16.484375 C 9.195312 -18.335938 9.664062 -19.5625 9.71875 -20.15625 L 9.96875 -20.15625 L 18.28125 -1.90625 C 18.5625 -1.363281 18.914062 -0.957031 19.34375 -0.6875 C 19.78125 -0.414062 20.222656 -0.28125 20.671875 -0.28125 Z M 5.859375 -6.65625 L 11.453125 -6.65625 L 8.734375 -13.546875 Z M 5.859375 -6.65625" transform="translate(162.896025, 195.374987)"/></g></g></g><g fill="#fff" fill-opacity="1"><g><g><path d="M 8.90625 -18.375 L 7.703125 -18.375 C 7.660156 -18.375 7.628906 -18.375 7.609375 -18.375 L 7.609375 -2.046875 C 7.628906 -1.554688 7.8125 -1.140625 8.15625 -0.796875 C 8.507812 -0.453125 8.925781 -0.28125 9.40625 -0.28125 L 9.765625 -0.28125 L 9.765625 0 L 1.265625 0 L 1.265625 -0.28125 L 1.625 -0.28125 C 2.289062 -0.28125 2.800781 -0.566406 3.15625 -1.140625 C 3.3125 -1.410156 3.398438 -1.703125 3.421875 -2.015625 L 3.421875 -17.5625 C 3.398438 -18.039062 3.21875 -18.453125 2.875 -18.796875 C 2.53125 -19.140625 2.113281 -19.3125 1.625 -19.3125 L 1.265625 -19.3125 L 1.265625 -19.59375 L 10.859375 -19.59375 C 12.671875 -19.59375 14.203125 -19.203125 15.453125 -18.421875 C 16.085938 -18.035156 16.59375 -17.488281 16.96875 -16.78125 C 17.34375 -16.082031 17.53125 -15.164062 17.53125 -14.03125 C 17.53125 -12.90625 17.132812 -11.820312 16.34375 -10.78125 C 15.5625 -9.738281 14.425781 -9.140625 12.9375 -8.984375 C 14.019531 -8.628906 14.972656 -7.8125 15.796875 -6.53125 C 17.804688 -3.300781 19.296875 -1.375 20.265625 -0.75 C 20.753906 -0.457031 21.363281 -0.300781 22.09375 -0.28125 L 22.09375 0 L 19.34375 0 C 17.71875 0 16.367188 -0.210938 15.296875 -0.640625 C 14.222656 -1.066406 13.378906 -1.820312 12.765625 -2.90625 C 12.410156 -3.53125 11.632812 -5.128906 10.4375 -7.703125 C 9.914062 -8.835938 9.285156 -9.460938 8.546875 -9.578125 L 8.546875 -9.859375 L 9.40625 -9.859375 C 10.25 -9.859375 10.988281 -10.109375 11.625 -10.609375 C 12.269531 -11.117188 12.707031 -11.941406 12.9375 -13.078125 C 13.007812 -13.460938 13.046875 -13.769531 13.046875 -14 C 13.046875 -15.53125 12.738281 -16.632812 12.125 -17.3125 C 11.507812 -18 10.71875 -18.351562 9.75 -18.375 C 9.5625 -18.375 9.28125 -18.375 8.90625 -18.375 Z M 8.90625 -18.375" transform="translate(194.141289, 195.374987)"/></g></g></g><g fill="#fff" fill-opacity="1"><g><g><path d="M 1.40625 -2.609375 C 1.40625 -3.953125 1.691406 -5.097656 2.265625 -6.046875 L 2.515625 -6.046875 C 2.492188 -5.898438 2.484375 -5.75 2.484375 -5.59375 C 2.484375 -4.3125 2.945312 -3.1875 3.875 -2.21875 C 4.800781 -1.257812 6.066406 -0.78125 7.671875 -0.78125 C 8.921875 -0.78125 9.894531 -1.078125 10.59375 -1.671875 C 11.289062 -2.273438 11.640625 -3.035156 11.640625 -3.953125 C 11.640625 -4.492188 11.46875 -4.976562 11.125 -5.40625 C 10.78125 -5.832031 10.207031 -6.304688 9.40625 -6.828125 L 4.53125 -10.046875 C 2.71875 -11.265625 1.8125 -12.757812 1.8125 -14.53125 C 1.8125 -14.71875 1.832031 -14.90625 1.875 -15.09375 C 1.988281 -16.5625 2.5625 -17.742188 3.59375 -18.640625 C 4.632812 -19.535156 6.019531 -19.984375 7.75 -19.984375 C 8.78125 -19.984375 10.050781 -19.894531 11.5625 -19.71875 L 13.328125 -19.71875 L 12.96875 -15.59375 L 12.6875 -15.59375 C 12.6875 -16.5625 12.328125 -17.335938 11.609375 -17.921875 C 10.890625 -18.515625 9.929688 -18.8125 8.734375 -18.8125 C 7.273438 -18.8125 6.222656 -18.363281 5.578125 -17.46875 C 5.234375 -17.039062 5.0625 -16.613281 5.0625 -16.1875 C 5.0625 -15.757812 5.144531 -15.394531 5.3125 -15.09375 C 5.582031 -14.601562 6.15625 -14.082031 7.03125 -13.53125 L 12.375 -10.046875 C 14.050781 -8.953125 14.890625 -7.515625 14.890625 -5.734375 C 14.890625 -3.753906 14.210938 -2.238281 12.859375 -1.1875 C 11.515625 -0.132812 9.71875 0.390625 7.46875 0.390625 C 6.207031 0.390625 5.039062 0.238281 3.96875 -0.0625 C 2.894531 -0.375 2.101562 -0.789062 1.59375 -1.3125 C 1.46875 -1.664062 1.40625 -2.097656 1.40625 -2.609375 Z M 1.40625 -2.609375" transform="translate(226.254438, 195.374987)"/></g></g></g><g fill="#fff" fill-opacity="1"><g><g><path d="M 14.8125 -0.28125 C 15.300781 -0.28125 15.675781 -0.398438 15.9375 -0.640625 C 16.363281 -1.066406 16.585938 -1.523438 16.609375 -2.015625 L 16.609375 -9.15625 L 7.53125 -9.15625 L 7.53125 -2.046875 C 7.53125 -1.554688 7.707031 -1.140625 8.0625 -0.796875 C 8.414062 -0.453125 8.835938 -0.28125 9.328125 -0.28125 L 9.65625 -0.28125 L 9.6875 0 L 1.171875 0 L 1.171875 -0.28125 L 1.546875 -0.28125 C 2.023438 -0.28125 2.4375 -0.453125 2.78125 -0.796875 C 3.125 -1.140625 3.304688 -1.554688 3.328125 -2.046875 L 3.328125 -17.5625 C 3.304688 -18.039062 3.125 -18.453125 2.78125 -18.796875 C 2.4375 -19.140625 2.023438 -19.3125 1.546875 -19.3125 L 1.171875 -19.3125 L 1.171875 -19.59375 L 9.6875 -19.59375 L 9.65625 -19.3125 L 9.328125 -19.3125 C 8.835938 -19.3125 8.414062 -19.140625 8.0625 -18.796875 C 7.707031 -18.453125 7.53125 -18.039062 7.53125 -17.5625 L 7.53125 -10.359375 L 16.609375 -10.359375 L 16.609375 -17.5625 C 16.585938 -18.039062 16.40625 -18.453125 16.0625 -18.796875 C 15.71875 -19.140625 15.300781 -19.3125 14.8125 -19.3125 L 14.453125 -19.3125 L 14.453125 -19.59375 L 22.953125 -19.59375 L 22.953125 -19.3125 L 22.59375 -19.3125 C 22.113281 -19.3125 21.691406 -19.140625 21.328125 -18.796875 C 20.972656 -18.453125 20.796875 -18.039062 20.796875 -17.5625 L 20.796875 -2.046875 C 20.796875 -1.554688 20.972656 -1.140625 21.328125 -0.796875 C 21.691406 -0.453125 22.113281 -0.28125 22.59375 -0.28125 L 22.953125 -0.28125 L 22.953125 0 L 14.453125 0 L 14.453125 -0.28125 Z M 14.8125 -0.28125" transform="translate(253.636235, 195.374987)"/></g></g></g></svg>