<svg xmlns="http://www.w3.org/2000/svg" version="1.1" xmlns:xlink="http://www.w3.org/1999/xlink" xmlns:svgjs="http://svgjs.com/svgjs" width="1440" height="560" preserveAspectRatio="none" viewBox="0 0 1440 560"><g mask="url(&quot;#SvgjsMask1000&quot;)" fill="none"><rect width="1440" height="560" x="0" y="0" fill="#0e2a47"></rect><path d="M858.973,329.377C909.403,328.188,955.214,298.993,978.529,254.26C1000.264,212.558,988.887,164.511,966.44,123.188C942.642,79.377,908.829,33.82,858.973,34.165C809.473,34.507,778.696,81.727,754.049,124.656C729.547,167.332,706.788,216.348,729.233,260.14C753.196,306.896,806.449,330.616,858.973,329.377" fill="rgba(28, 83, 142, 0.4)" class="triangle-float1"></path><path d="M257.29715936592834 383.04931891852095L400.4387814424455 403.30569213112716 355.15003839317967 285.3244828597577z" fill="rgba(28, 83, 142, 0.4)" class="triangle-float1"></path><path d="M1217.9611261949244 410.56466912563985L1363.6893628359244 418.2019623868282 1371.3266560971128 272.47372574582823 1225.5984194561127 264.8364324846399z" fill="rgba(28, 83, 142, 0.4)" class="triangle-float3"></path><path d="M1236.9499274823927 141.384576090674L1077.9073914833052 169.42806626761046 1264.9934176593292 300.4271120897615z" fill="rgba(28, 83, 142, 0.4)" class="triangle-float2"></path><path d="M938.899,432.514C969.517,431.904,997.387,414.37,1011.73,387.312C1025.244,361.818,1020.043,331.732,1005.545,306.785C991.13,281.98,967.575,261.118,938.899,261.989C911.321,262.827,893.251,287.058,878.915,310.632C863.748,335.573,847.97,364.128,860.86,390.319C874.855,418.757,907.21,433.146,938.899,432.514" fill="rgba(28, 83, 142, 0.4)" class="triangle-float3"></path><path d="M204.275,203.094C226.322,202.415,237.805,178.98,247.825,159.33C256.63,142.062,262.461,122.911,254.071,105.438C244.495,85.496,226.391,68.102,204.275,68.636C182.765,69.155,168.376,88.642,158.478,107.746C149.523,125.03,147.387,144.619,155.815,162.166C165.627,182.594,181.624,203.792,204.275,203.094" fill="rgba(28, 83, 142, 0.4)" class="triangle-float2"></path></g><defs><mask id="SvgjsMask1000"><rect width="1440" height="560" fill="#ffffff"></rect></mask><style>
            @keyframes float1 {
                0%{transform: translate(0, 0)}
                50%{transform: translate(-10px, 0)}
                100%{transform: translate(0, 0)}
            }

            .triangle-float1 {
                animation: float1 5s infinite;
            }

            @keyframes float2 {
                0%{transform: translate(0, 0)}
                50%{transform: translate(-5px, -5px)}
                100%{transform: translate(0, 0)}
            }

            .triangle-float2 {
                animation: float2 4s infinite;
            }

            @keyframes float3 {
                0%{transform: translate(0, 0)}
                50%{transform: translate(0, -10px)}
                100%{transform: translate(0, 0)}
            }

            .triangle-float3 {
                animation: float3 6s infinite;
            }
        </style></defs></svg>