<svg xmlns="http://www.w3.org/2000/svg" version="1.1" xmlns:xlink="http://www.w3.org/1999/xlink" xmlns:svgjs="http://svgjs.com/svgjs" width="1440" height="560" preserveAspectRatio="none" viewBox="0 0 1440 560"><g mask="url(&quot;#SvgjsMask1000&quot;)" fill="none"><rect width="1440" height="560" x="0" y="0" fill="#0e2a47"></rect><path d="M827.83 54.25 a46.88 46.88 0 1 0 93.76 0 a46.88 46.88 0 1 0 -93.76 0z" stroke="#037b0b"></path><path d="M649.59 131.88L702.11 131.88L702.11 184.4L649.59 184.4z" stroke="#d3b714"></path><path d="M840.68 480.63 a16.32 16.32 0 1 0 32.64 0 a16.32 16.32 0 1 0 -32.64 0z" stroke="#d3b714"></path><path d="M125.73 498.07 a17.97 17.97 0 1 0 35.94 0 a17.97 17.97 0 1 0 -35.94 0z" stroke="#e73635"></path><path d="M1195.44 542.78L1218.27 542.78L1218.27 565.61L1195.44 565.61z" stroke="#e73635"></path><path d="M606.01 370.55L656.03 370.55L656.03 420.57L606.01 420.57z" fill="#037b0b"></path><path d="M1349.85 38.97a45.94 45.94 0 1 0 90.82-13.9z" fill="#d3b714"></path><path d="M219.71 84.94 a40.97 40.97 0 1 0 81.94 0 a40.97 40.97 0 1 0 -81.94 0z" stroke="#e73635"></path><path d="M700.22 44.46L729.22 44.46L729.22 73.46L700.22 73.46z" fill="#e73635"></path><path d="M547.66 497.7L594.98 497.7L594.98 545.02L547.66 545.02z" fill="#d3b714"></path><path d="M1052.86 78.06 a31.55 31.55 0 1 0 63.1 0 a31.55 31.55 0 1 0 -63.1 0z" stroke="#037b0b"></path><path d="M1430.05 399.17L1441.64 399.17L1441.64 410.76L1430.05 410.76z" fill="#e73635"></path><path d="M1133.04 5.57L1165.04 5.57L1165.04 37.57L1133.04 37.57z" stroke="#e73635"></path><path d="M1096.03 242.05L1098.64 242.05L1098.64 256.12L1096.03 256.12z" stroke="#e73635"></path><path d="M1015.37 121.15L1051.67 121.15L1051.67 150.42L1015.37 150.42z" fill="#d3b714"></path><path d="M1406.26 63.1 a16.01 16.01 0 1 0 32.02 0 a16.01 16.01 0 1 0 -32.02 0z" stroke="#d3b714"></path><path d="M954 330.7L972.26 330.7L972.26 348.96L954 348.96z" fill="#e73635"></path><path d="M1419.15 104.73a15.7 15.7 0 1 0 8.39 30.26z" fill="#d3b714"></path><path d="M307.58 352.19a26.76 26.76 0 1 0-23.34 48.17z" stroke="#037b0b"></path><path d="M1016.63 243.67 a0.14 0.14 0 1 0 0.28 0 a0.14 0.14 0 1 0 -0.28 0z" stroke="#e73635"></path><path d="M308.87 499.88a22.73 22.73 0 1 0-3.12 45.35z" fill="#e73635"></path><path d="M1364.29 106.87L1383.37 106.87L1383.37 125.95L1364.29 125.95z" fill="#e73635"></path><path d="M14.12 356.24 a15.14 15.14 0 1 0 30.28 0 a15.14 15.14 0 1 0 -30.28 0z" fill="#e73635"></path><path d="M948.52 333.94 a19.24 19.24 0 1 0 38.48 0 a19.24 19.24 0 1 0 -38.48 0z" fill="#d3b714"></path><path d="M237.58 414.06L262.13 414.06L262.13 422.64L237.58 422.64z" stroke="#d3b714"></path><path d="M1436.99 470.2L1447.55 470.2L1447.55 480.76L1436.99 480.76z" stroke="#037b0b"></path><path d="M410.12 281.72a18.44 18.44 0 1 0 12.65 34.64z" fill="#d3b714"></path><path d="M1010.66 75.43a8.55 8.55 0 1 0 16.66-3.84z" stroke="#d3b714"></path><path d="M545.6 106.55L600.38 106.55L600.38 106.69L545.6 106.69z" stroke="#e73635"></path><path d="M975.99 485.23a28.79 28.79 0 1 0-33.09-47.12z" fill="#037b0b"></path><path d="M1041.64 2.08a35.45 35.45 0 1 0-47.26 52.85z" fill="#037b0b"></path><path d="M336.01 201.71L357.85 201.71L357.85 223.55L336.01 223.55z" fill="#d3b714"></path><path d="M771.34 315.03L823.6 315.03L823.6 367.29L771.34 367.29z" fill="#d3b714"></path></g><defs><mask id="SvgjsMask1000"><rect width="1440" height="560" fill="#ffffff"></rect></mask></defs></svg>